PathFileType  4	(X/Y/Z) subject11/noload/static/trial01/expdata
DataRate	CameraRate	NumFrames	NumMarkers	Units	OrigDataRate	OrigDataStartFrame	OrigNumFrames
100.0	100.0	4	64	mm	100.0	144	287
Frame#	Time	R.Shoulder			L.Shoulder			R.Clavicle			L.Clavicle			R.Biceps			R.Elbow			R.MElbow			R.Forearm			R.Wrist			L.Biceps			L.Elbow			L.MElbow			L.Forearm			L.Wrist			R.ASIS			L.ASIS			R.PSIS			S2			L.PSIS			R.TH1			R.TH2			R.TH3			R.Knee			R.MKnee			R.SH1			R.SH2			R.SH3			R.SH4			R.Ankle			R.MAnkle			R.Heel			R.MT5			R.Toe			L.TH1			L.TH2			L.TH3			L.TH4			L.Knee			L.MKnee			L.SH1			L.SH2			L.SH3			L.Ankle			L.MAnkle			L.Heel			L.MT5			L.Toe			R_HJC			L_HJC			L.HeelGround			L.ToeGround			L.MT5Ground			L.AnkleJoint			L.AnkleJointGround			L.KneeJoint			R.HeelGround			R.ToeGround			R.MT5Ground			R.AnkleJoint			R.AnkleJointGround			R.KneeJoint			MidASIS			MidPSIS			MidClavicle			
		X1	Y1	Z1	X2	Y2	Z2	X3	Y3	Z3	X4	Y4	Z4	X5	Y5	Z5	X6	Y6	Z6	X7	Y7	Z7	X8	Y8	Z8	X9	Y9	Z9	X10	Y10	Z10	X11	Y11	Z11	X12	Y12	Z12	X13	Y13	Z13	X14	Y14	Z14	X15	Y15	Z15	X16	Y16	Z16	X17	Y17	Z17	X18	Y18	Z18	X19	Y19	Z19	X20	Y20	Z20	X21	Y21	Z21	X22	Y22	Z22	X23	Y23	Z23	X24	Y24	Z24	X25	Y25	Z25	X26	Y26	Z26	X27	Y27	Z27	X28	Y28	Z28	X29	Y29	Z29	X30	Y30	Z30	X31	Y31	Z31	X32	Y32	Z32	X33	Y33	Z33	X34	Y34	Z34	X35	Y35	Z35	X36	Y36	Z36	X37	Y37	Z37	X38	Y38	Z38	X39	Y39	Z39	X40	Y40	Z40	X41	Y41	Z41	X42	Y42	Z42	X43	Y43	Z43	X44	Y44	Z44	X45	Y45	Z45	X46	Y46	Z46	X47	Y47	Z47	X48	Y48	Z48	X49	Y49	Z49	X50	Y50	Z50	X51	Y51	Z51	X52	Y52	Z52	X53	Y53	Z53	X54	Y54	Z54	X55	Y55	Z55	X56	Y56	Z56	X57	Y57	Z57	X58	Y58	Z58	X59	Y59	Z59	X60	Y60	Z60	X61	Y61	Z61	X62	Y62	Z62	X63	Y63	Z63	X64	Y64	Z64	

144	1.43000	461.583	1566.360	-270.850	744.100	1569.754	-257.298	569.129	1492.019	-186.378	625.007	1490.828	-182.799	249.566	1501.901	-268.723	148.006	1517.066	-295.898	165.607	1457.265	-363.139	135.153	1387.716	-207.854	117.032	1283.872	-150.730	929.488	1528.045	-243.132	1051.216	1504.930	-235.625	1041.908	1441.393	-300.765	1060.247	1396.628	-132.471	1057.466	1306.761	-66.806	455.882	1032.630	-157.409	713.536	1019.468	-158.285	540.687	1037.524	-365.648	583.897	1014.651	-377.510	630.161	1032.785	-365.380	373.475	800.140	-198.105	373.325	790.705	-306.860	389.713	661.812	-304.822	397.504	529.171	-262.170	527.702	502.469	-250.636	382.716	434.549	-253.796	369.723	323.164	-262.895	384.476	436.498	-338.059	377.910	316.731	-347.604	387.273	112.588	-305.285	472.631	110.720	-279.747	435.824	36.443	-377.755	340.578	39.677	-193.634	431.155	56.648	-78.337	794.646	822.850	-182.640	768.318	694.693	-176.746	804.681	827.400	-288.895	779.161	694.563	-294.924	759.457	532.053	-262.278	628.162	506.790	-282.049	760.522	425.116	-239.534	791.381	445.794	-330.887	798.962	330.087	-346.348	797.602	116.325	-297.346	711.301	111.949	-290.537	755.672	35.046	-384.933	838.297	36.628	-193.766	743.093	58.952	-89.866	471.317	941.278	-254.647	686.117	934.389	-250.927	755.672	0.000	-384.933	743.093	0.000	-89.866	838.297	0.000	-193.766	754.452	114.137	-293.942	754.452	0.000	-293.942	693.810	519.422	-272.163	435.824	0.000	-377.755	431.155	0.000	-78.337	340.578	0.000	-193.634	429.952	111.654	-292.516	429.952	0.000	-292.516	462.603	515.820	-256.403	584.709	1026.049	-157.847	585.424	1035.155	-365.514	597.068	1491.423	-184.589
145	1.44000	461.478	1566.496	-270.681	744.077	1569.727	-257.183	569.078	1491.957	-186.220	623.963	1491.263	-181.940	249.441	1501.918	-268.597	147.798	1517.062	-295.753	165.428	1457.281	-362.986	135.046	1387.584	-207.721	117.278	1283.610	-150.558	929.498	1527.950	-243.088	1051.010	1504.667	-235.660	1041.884	1441.255	-300.820	1060.010	1396.331	-132.588	1057.309	1306.366	-66.953	455.719	1032.475	-157.514	713.389	1019.401	-158.454	540.535	1037.646	-365.800	583.578	1014.774	-377.736	629.988	1032.807	-365.571	373.483	800.063	-198.248	373.505	790.646	-307.064	389.495	661.848	-305.036	397.539	529.034	-262.346	527.853	502.565	-250.859	382.782	434.484	-253.993	369.687	323.060	-262.986	384.321	436.540	-338.170	377.895	316.660	-347.696	387.258	112.542	-305.312	472.620	110.763	-279.746	435.792	36.394	-377.781	340.563	39.648	-193.628	431.105	56.657	-78.349	794.565	822.891	-182.967	768.336	694.738	-177.053	804.559	827.424	-289.135	779.087	694.622	-295.172	759.369	532.120	-262.445	628.143	506.657	-282.207	760.398	425.126	-239.643	791.225	445.909	-331.057	798.873	330.086	-346.463	797.577	116.366	-297.358	711.292	111.922	-290.533	755.606	35.045	-384.941	838.284	36.726	-193.790	743.073	58.936	-89.880	471.145	941.244	-254.867	685.947	934.379	-251.212	755.606	0.000	-384.941	743.073	0.000	-89.880	838.284	0.000	-193.790	754.435	114.144	-293.946	754.435	0.000	-293.946	693.756	519.389	-272.326	435.792	0.000	-377.781	431.105	0.000	-78.349	340.563	0.000	-193.628	429.939	111.653	-292.529	429.939	0.000	-292.529	462.696	515.799	-256.603	584.554	1025.938	-157.984	585.262	1035.226	-365.686	596.520	1491.610	-184.080
146	1.45000	461.587	1566.582	-270.498	744.063	1569.696	-257.098	568.930	1491.868	-186.013	623.933	1491.168	-181.831	249.446	1501.833	-268.442	147.753	1516.992	-295.583	165.371	1457.208	-362.808	135.133	1387.435	-207.563	117.515	1283.464	-150.407	929.480	1527.779	-243.064	1051.018	1504.451	-235.681	1041.788	1441.048	-300.902	1059.631	1395.974	-132.695	1056.805	1305.923	-67.158	455.654	1032.363	-157.573	713.325	1019.304	-158.620	540.378	1037.782	-365.932	583.388	1014.958	-377.861	629.813	1032.911	-365.711	373.324	800.028	-198.430	373.443	790.606	-307.279	389.513	661.707	-305.270	397.379	528.941	-262.584	527.770	502.728	-250.927	382.769	434.419	-254.134	369.684	322.979	-263.095	384.310	436.417	-338.288	377.685	316.584	-347.814	387.220	112.471	-305.326	472.483	110.633	-279.886	435.676	36.396	-377.760	340.556	39.611	-193.632	431.079	56.650	-78.375	794.430	822.971	-183.269	768.210	694.790	-177.308	805.698	827.972	-289.788	778.781	694.663	-295.493	758.955	532.069	-262.733	628.180	506.456	-282.435	760.407	425.249	-239.843	791.117	446.076	-331.211	798.720	330.086	-346.616	797.541	116.470	-297.367	711.300	111.859	-290.546	755.538	35.024	-384.947	838.271	36.775	-193.782	743.013	58.907	-89.885	471.028	941.252	-255.041	685.832	934.383	-251.488	755.538	0.000	-384.947	743.013	0.000	-89.885	838.271	0.000	-193.782	754.420	114.165	-293.957	754.420	0.000	-293.957	693.567	519.263	-272.584	435.676	0.000	-377.760	431.079	0.000	-78.375	340.556	0.000	-193.632	429.851	111.552	-292.606	429.851	0.000	-292.606	462.575	515.835	-256.755	584.490	1025.833	-158.096	585.096	1035.347	-365.822	596.431	1491.518	-183.922
147	1.46000	461.504	1566.718	-270.237	744.062	1569.647	-257.027	568.890	1491.706	-185.823	623.963	1491.208	-181.709	249.426	1501.790	-268.267	147.698	1516.966	-295.393	165.654	1457.148	-362.521	135.216	1387.391	-207.395	117.593	1283.439	-150.238	929.622	1527.664	-243.073	1051.010	1504.210	-235.772	1041.673	1440.848	-301.048	1059.490	1395.673	-132.830	1056.186	1305.547	-67.372	455.523	1032.225	-157.628	713.294	1019.248	-158.711	540.182	1037.980	-366.010	582.918	1015.133	-377.951	629.300	1033.165	-365.839	373.360	799.746	-198.607	373.430	790.608	-307.453	389.353	661.680	-305.551	397.307	528.704	-262.797	527.751	502.919	-251.131	382.708	434.380	-254.260	369.664	322.925	-263.195	384.262	436.355	-338.468	377.641	316.503	-347.937	387.211	112.389	-305.339	472.731	110.726	-279.824	435.770	36.303	-377.791	340.636	39.523	-193.611	431.020	56.668	-78.368	794.286	822.865	-183.600	768.187	694.785	-177.621	805.468	828.135	-290.103	778.671	694.651	-295.743	758.872	532.150	-262.916	628.147	506.429	-282.514	760.331	425.355	-239.981	790.885	446.076	-331.344	798.693	330.092	-346.710	797.530	116.449	-297.374	711.282	111.854	-290.541	755.533	34.987	-384.945	838.228	36.775	-193.740	742.994	58.929	-89.893	470.815	941.261	-255.145	685.624	934.455	-251.800	755.533	0.000	-384.945	742.994	0.000	-89.893	838.228	0.000	-193.740	754.406	114.151	-293.957	754.406	0.000	-293.957	693.510	519.289	-272.715	435.770	0.000	-377.791	431.020	0.000	-78.368	340.636	0.000	-193.611	429.971	111.558	-292.582	429.971	0.000	-292.582	462.529	515.812	-256.964	584.409	1025.736	-158.169	584.741	1035.572	-365.924	596.427	1491.457	-183.766
